<?xml version="1.0" encoding="UTF-8" standalone="no"?>
<!-- Created with Inkscape (http://www.inkscape.org/) -->

<svg
   xmlns:dc="http://purl.org/dc/elements/1.1/"
   xmlns:cc="http://creativecommons.org/ns#"
   xmlns:rdf="http://www.w3.org/1999/02/22-rdf-syntax-ns#"
   xmlns:svg="http://www.w3.org/2000/svg"
   xmlns="http://www.w3.org/2000/svg"
   version="1.1"
   width="28"
   height="28"
   id="svg4020">
  <metadata
     id="metadata4026">
    <rdf:RDF>
      <cc:Work
         rdf:about="">
        <dc:format>image/svg+xml</dc:format>
        <dc:type
           rdf:resource="http://purl.org/dc/dcmitype/StillImage" />
        <dc:title></dc:title>
      </cc:Work>
    </rdf:RDF>
  </metadata>
  <defs
     id="defs4024" />
  <path
     d="M 8.0710847,26.398253 C -4.2635723,19.914707 -1.1705563,2.1545962 12.586575,0.47029095 19.895772,-0.42458445 26.697057,5.0982791 27.625599,12.682465 28.902795,23.114387 17.302795,31.250776 8.0710847,26.398253 z M 21.6,21.69589 c 4.823244,-4.823244 4.823244,-10.376756 0,-15.1999999 -2.787302,-2.787301 -4.156863,-3.3999996 -7.6,-3.3999996 -3.443137,0 -4.8126983,0.6126986 -7.6000003,3.3999996 -4.823244,4.8232439 -4.823244,10.3767559 0,15.1999999 2.787302,2.787302 4.1568633,3.4 7.6000003,3.4 3.443137,0 4.812698,-0.612698 7.6,-3.4 z M 8.9230767,19.172813 c -1.607692,-1.607692 -2.923077,-3.892308 -2.923077,-5.076923 0,-2.783672 5.2163283,-7.9999999 8.0000003,-7.9999999 2.783672,0 8,5.2163279 8,7.9999999 0,2.783672 -5.216328,8 -8,8 -1.184615,0 -3.469231,-1.315385 -5.0769233,-2.923077 z M 17.428571,17.524461 C 20.461282,14.491751 18.266356,9.0958901 14,9.0958901 c -2.386038,0 -5.0000003,2.6139619 -5.0000003,4.9999999 0,2.386038 2.6139623,5 5.0000003,5 1.021429,0 2.564286,-0.707143 3.428571,-1.571429 z m -4.982422,-2.515703 c -1.030521,-1.667419 1.287209,-3.57951 2.666719,-2.2 1.153924,1.153924 0.431721,3.287132 -1.112868,3.287132 -0.485081,0 -1.184314,-0.48921 -1.553851,-1.087132 z"
     id="path4030"
     style="fill:#000000" />
</svg>
